<svg width="97" height="92" viewBox="0 0 97 92" fill="none" xmlns="http://www.w3.org/2000/svg">
<path d="M67.37 73.7501L25.46 26.76C23.69 24.78 23.87 21.74 25.85 19.98L46.1 1.92004C48.08 0.150041 51.12 0.330056 52.88 2.31006L94.79 49.3C96.56 51.28 96.38 54.32 94.4 56.08L74.15 74.14C72.18 75.9 69.14 75.7301 67.37 73.7501Z" fill="#184899" stroke="#F29120" stroke-width="1.2325" stroke-miterlimit="10"/>
<path d="M68.75 47.6901C74.09 42.9301 74.5599 34.7401 69.7999 29.4001C65.0399 24.0601 56.85 23.5901 51.51 28.3501C46.17 33.1101 45.6999 41.3001 50.4599 46.6401C55.2199 51.9801 63.41 52.4501 68.75 47.6901Z" fill="#F29120"/>
<path d="M51.3643 34.3514L58.7252 27.7865L61.1823 30.5416C61.7387 31.1655 62.1154 31.7924 62.3122 32.4224C62.5161 33.0461 62.535 33.646 62.369 34.2219C62.2163 34.7987 61.8736 35.3246 61.3408 35.7998C60.822 36.2625 60.264 36.5399 59.6666 36.6322C59.0825 36.7252 58.4887 36.638 57.8852 36.3707C57.2888 36.0971 56.7124 35.6484 56.1559 35.0244L54.0833 32.7005L54.7503 32.7287L52.0583 35.1295L51.3643 34.3514ZM55.8472 39.3778L56.83 35.1029L57.5803 35.9441L56.6069 40.2295L55.8472 39.3778ZM54.6872 32.7849L54.7458 32.1097L56.7996 34.4126C57.4561 35.1486 58.1144 35.5622 58.7745 35.6531C59.4408 35.7511 60.0649 35.5406 60.6468 35.0217C61.2357 34.4965 61.5194 33.8973 61.498 33.2241C61.4828 32.558 61.147 31.8568 60.4905 31.1208L58.4367 28.8179L59.1142 28.8366L54.6872 32.7849ZM58.1417 41.9504L65.5025 35.3856L67.9596 38.1406C68.5161 38.7645 68.8927 39.3915 69.0896 40.0215C69.2934 40.6452 69.3124 41.245 69.1464 41.821C68.9937 42.3977 68.6509 42.9237 68.1181 43.3989C67.5994 43.8615 67.0413 44.139 66.4439 44.2312C65.8598 44.3243 65.266 44.2371 64.6626 43.9698C64.0591 43.7024 63.4792 43.2568 62.9227 42.6329L60.8501 40.309L61.5276 40.3277L58.8357 42.7286L58.1417 41.9504ZM61.4645 40.384L61.5336 39.6994L63.5875 42.0022C64.244 42.7383 64.8987 43.155 65.5518 43.2522C66.2182 43.3501 66.8423 43.1396 67.4241 42.6207C68.013 42.0955 68.2967 41.4963 68.2753 40.8232C68.2602 40.157 67.9244 39.4559 67.2679 38.7198L65.214 36.4169L65.8915 36.4357L61.4645 40.384Z" fill="white"/>
<path d="M61.71 84.1002L7.42998 52.8802C5.04998 51.5102 4.23002 48.4702 5.60002 46.0802L18.95 22.8602C20.32 20.4802 23.36 19.6602 25.75 21.0302L80.0301 52.2502C82.4101 53.6202 83.23 56.6602 81.86 59.0502L68.5101 82.2702C67.1401 84.6502 64.1 85.4702 61.71 84.1002Z" fill="#184899" stroke="#F29120" stroke-width="1.2325" stroke-miterlimit="10"/>
<path d="M54.96 59.0202C58.53 52.8202 56.39 44.9002 50.19 41.3302C43.99 37.7602 36.07 39.9002 32.5 46.1002C28.93 52.3002 31.0701 60.2202 37.2701 63.7902C43.4701 67.3602 51.39 65.2302 54.96 59.0202Z" fill="#F29120"/>
<path d="M34.3845 51.9695L39.3022 43.4202L42.5021 45.2608C43.2268 45.6777 43.7818 46.154 44.167 46.6899C44.557 47.2176 44.7639 47.7809 44.7879 48.3799C44.8246 48.9753 44.665 49.5825 44.3091 50.2013C43.9625 50.8038 43.5202 51.243 42.9824 51.5187C42.4573 51.791 41.8663 51.8953 41.2094 51.8317C40.5571 51.76 39.8687 51.5157 39.144 51.0988L36.4448 49.5462L37.0867 49.3628L35.2883 52.4894L34.3845 51.9695ZM40.2225 55.3277L39.8085 50.9609L40.7856 51.5229L41.2117 55.8967L40.2225 55.3277ZM37.0446 49.4361L36.8874 48.7768L39.5622 50.3153C40.4171 50.8071 41.1721 50.9922 41.8273 50.8705C42.4905 50.7536 43.0165 50.3572 43.4053 49.6814C43.7987 48.9975 43.8792 48.3394 43.6468 47.7073C43.4226 47.0798 42.883 46.5202 42.0281 46.0284L39.3533 44.4899L40.0023 44.2942L37.0446 49.4361ZM43.2105 57.0465L48.1283 48.4971L51.3282 50.3377C52.0529 50.7546 52.6078 51.2309 52.9931 51.7668C53.3831 52.2946 53.59 52.8579 53.614 53.4568C53.6507 54.0523 53.4911 54.6594 53.1351 55.2782C52.7886 55.8807 52.3463 56.3199 51.8084 56.5956C51.2834 56.8679 50.6924 56.9723 50.0354 56.9087C49.3785 56.845 48.6877 56.6048 47.9631 56.188L45.2639 54.6354L45.9128 54.4397L44.1143 57.5663L43.2105 57.0465ZM45.8707 54.513L45.7205 53.8415L48.3953 55.38C49.2502 55.8718 50.0029 56.061 50.6533 55.9475C51.3166 55.8305 51.8426 55.4341 52.2314 54.7583C52.6248 54.0744 52.7053 53.4163 52.4729 52.7842C52.2487 52.1567 51.7091 51.5971 50.8542 51.1054L48.1794 49.5668L48.8284 49.3712L45.8707 54.513Z" fill="white"/>
<path d="M68.74 90.7H6.82996C3.87996 90.7 1.5 88.31 1.5 85.37V59.3C1.5 56.35 3.88996 53.97 6.82996 53.97H68.74C71.69 53.97 74.0699 56.36 74.0699 59.3V85.37C74.0699 88.32 71.68 90.7 68.74 90.7Z" fill="#184899" stroke="#F29120" stroke-width="1.2325" stroke-miterlimit="10"/>
<path d="M37.78 85.2899C44.9321 85.2899 50.73 79.492 50.73 72.3399C50.73 65.1878 44.9321 59.3899 37.78 59.3899C30.6279 59.3899 24.83 65.1878 24.83 72.3399C24.83 79.492 30.6279 85.2899 37.78 85.2899Z" fill="#F29120"/>
<path d="M29.234 76.4688V66.6057H32.9256C33.7616 66.6057 34.4802 66.7419 35.0813 67.0143C35.6825 67.2773 36.1428 67.6624 36.4622 68.1697C36.7909 68.6675 36.9553 69.2734 36.9553 69.9873C36.9553 70.6824 36.7909 71.2836 36.4622 71.7908C36.1428 72.2887 35.6825 72.6738 35.0813 72.9462C34.4802 73.2092 33.7616 73.3407 32.9256 73.3407H29.8117L30.2766 72.8617V76.4688H29.234ZM35.969 76.4688L33.4328 72.8899H34.56L37.1103 76.4688H35.969ZM30.2766 72.9462L29.8117 72.4531H32.8974C33.8837 72.4531 34.6305 72.237 35.1377 71.8049C35.6543 71.3728 35.9127 70.767 35.9127 69.9873C35.9127 69.1983 35.6543 68.5877 35.1377 68.1556C34.6305 67.7235 33.8837 67.5074 32.8974 67.5074H29.8117L30.2766 67.0143V72.9462ZM39.4163 76.4688V66.6057H43.1079C43.9439 66.6057 44.6625 66.7419 45.2636 67.0143C45.8648 67.2773 46.3251 67.6624 46.6445 68.1697C46.9732 68.6675 47.1376 69.2734 47.1376 69.9873C47.1376 70.6824 46.9732 71.2836 46.6445 71.7908C46.3251 72.2887 45.8648 72.6738 45.2636 72.9462C44.6625 73.2186 43.9439 73.3548 43.1079 73.3548H39.9939L40.4589 72.8617V76.4688H39.4163ZM40.4589 72.9462L39.9939 72.439H43.0797C44.066 72.439 44.8128 72.2276 45.32 71.8049C45.8366 71.3728 46.095 70.767 46.095 69.9873C46.095 69.1983 45.8366 68.5877 45.32 68.1556C44.8128 67.7235 44.066 67.5074 43.0797 67.5074H39.9939L40.4589 67.0143V72.9462Z" fill="white"/>
</svg>
