<svg width="123" height="22" viewBox="0 0 123 22" fill="none" xmlns="http://www.w3.org/2000/svg">
<mask id="mask0_9_1033" style="mask-type:luminance" maskUnits="userSpaceOnUse" x="0" y="0" width="34" height="22">
<path d="M3.87 7.87001C3.87 7.80001 4.00997 7.75001 4.08997 7.58001C4.15997 7.43001 4.16003 7.37001 4.16003 7.15001C4.10003 7.16001 4.08994 7.18001 4.05994 7.23001C3.95994 7.43001 4.02997 7.34001 3.83997 7.53001C3.64997 7.72001 3.74998 7.71001 3.59998 7.98001C3.49998 7.98001 3.35 7.94001 3.25 7.92001C3.19 7.91001 3.12995 7.90001 3.06995 7.89001C2.97995 7.86001 3.01993 7.83001 2.92993 7.82001C2.93993 7.88001 2.92997 7.85001 2.96997 7.89001C3.04997 7.96001 3.31996 8.08001 3.45996 8.08001C3.43996 8.15001 3.40001 8.15001 3.39001 8.25001C3.53001 8.18001 3.5 8.25001 3.63 8.25001C3.71 8.25001 3.75994 8.18001 3.80994 8.13001C3.88994 8.06001 3.92993 8.09001 3.92993 7.95001C3.87993 7.94001 3.87 7.94001 3.87 7.87001ZM6.45996 5.03001C6.58996 5.03001 6.58002 4.99001 6.65002 4.95001L6.84998 5.03001C6.91998 5.06001 6.98997 5.08001 7.08997 5.08001C7.08997 5.03001 7.08993 5.05001 7.04993 5.02001C7.02993 5.01001 7.00999 5.00001 6.98999 4.99001C6.73999 4.87001 6.52004 4.74001 6.29004 4.88001C6.21004 4.93001 6.07993 4.98001 6.04993 5.01001C6.08993 5.03001 6.09001 5.02001 6.14001 5.02001C6.13001 5.07001 6.09996 5.06001 6.07996 5.11001C6.03996 5.21001 6.07004 5.29001 6.04004 5.37001C6.02004 5.41001 6.01 5.42001 6 5.47001C6.03 5.48001 6.01993 5.48001 6.04993 5.48001C6.16993 5.48001 6.35999 5.20001 6.37 5.02001H6.45996V5.03001ZM17.46 6.11001C17.66 4.47001 17.93 2.16001 17.99 1.43001H19.75L19.9199 1.42001C20.3099 1.38001 20.84 1.42001 20.95 1.41001L22.8099 1.40001C22.9299 1.40001 23.09 1.38001 23.22 1.38001C23.36 1.38001 23.49 1.37001 23.64 1.37001C23.79 1.37001 23.9099 1.38001 24.0599 1.38001H26.2C26.35 1.38001 26.5399 1.40001 26.6899 1.40001H27.48C27.74 1.38001 27.5499 1.38001 27.8199 1.40001C28.1099 1.42001 28.13 1.36001 28.54 1.41001C28.69 1.43001 28.77 1.39001 28.89 1.39001C29.19 1.39001 29.4 1.43001 29.64 1.43001H29.9199C29.9399 1.43001 29.97 1.43001 29.99 1.44001H31.99H32.27C32.27 1.46001 32.27 1.47001 32.27 1.48001L32.28 2.74001C32.28 2.82001 32.2999 2.93001 32.2999 3.02001C32.2999 3.11001 32.3099 3.20001 32.3099 3.31001C32.3099 3.41001 32.2999 3.49001 32.2999 3.60001V5.06001C32.2999 5.10001 32.3 5.14001 32.29 5.18001C32.29 5.21001 32.2999 5.25001 32.2999 5.27001C32.2999 5.36001 32.3099 5.45001 32.3099 5.56001C32.3099 5.66001 32.2999 5.74001 32.2999 5.85001V6.57001H32.28C32.28 6.59001 32.27 6.62001 32.27 6.65001C32.25 6.74001 32.28 6.80001 32.29 6.86001H31.99H29.88C29.87 6.86001 29.86 6.86001 29.85 6.86001C29.83 6.86001 29.81 6.86001 29.79 6.86001H29.09L29.0699 6.87001C28.8199 6.99001 28.4499 6.86001 28.0499 6.88001C27.7699 6.90001 27.91 6.90001 27.61 6.88001C27.47 6.87001 27.3199 6.89001 27.1899 6.90001C26.6099 6.95001 24.3599 6.93001 23.6799 6.91001C23.5899 6.91001 23.5299 6.89001 23.4399 6.89001C23.0999 6.88001 23.3199 6.88001 23.0499 6.89001H22.95C22.94 7.75001 22.66 8.82001 22.64 9.64001C26.77 9.64001 28.5399 10.48 30.9299 12.35C32.2099 13.35 33.4799 15.88 33.8199 18.24C34.0499 19.29 34.07 20.44 33.79 21.64H32.58H30.59C29.62 21.38 28.92 20.74 28.51 19.95C27.54 18.06 28.6599 16.96 28.7999 16.43C27.9999 16.5 26.9799 17.19 25.3199 15.92C24.6399 15.39 24.25 14.53 24.15 13.66C24.09 13.14 24.2 13 24.24 12.62C23.9 12.85 22.75 14.49 20.7 13.87C19.53 13.52 18.4 12.39 18.34 11.29C18.33 11.14 18.25 11.14 18.24 11.3C18.24 11.31 18.24 11.31 18.24 11.32C18.24 11.33 18.24 11.33 18.24 11.34C18.24 11.35 18.24 11.35 18.24 11.35V11.36V11.37V11.38C18.18 11.79 17.97 12.2 17.75 12.49C16.82 13.76 15.19 14.26 13.87 13.66C13.57 13.52 13.35 13.41 13.08 13.21C12.95 13.11 12.87 13.08 12.76 12.96C12.52 12.72 12.7499 12.83 12.4399 12.61C12.5599 14.01 12.7099 14.7 11.4199 15.97C10.2099 17.15 8.93001 16.76 7.88 16.51C7.96 16.81 8.14001 16.99 8.26001 17.27C8.70001 18.3 8.56001 19.53 7.89001 20.43C7.82001 20.53 7.72002 20.66 7.65002 20.76C7.37002 21.1 6.71004 21.47 6.29004 21.63H6.08997V21.69H0.5V19.4C3.17 17.29 5.43997 15.62 6.96997 14.25C9.96997 11.57 11.34 10.12 11.34 8.98001C11.34 7.65001 10.47 6.76001 9.20996 6.76001C9.01996 6.76001 8.83992 6.78001 8.66992 6.81001C8.72992 6.78001 8.78997 6.75001 8.83997 6.71001C8.89997 6.66001 9.13 6.38001 9.13 6.29001C9.13 6.23001 8.98997 6.31001 8.96997 6.32001C8.80997 6.39001 8.91998 6.26001 8.47998 6.53001C8.27998 6.65001 8.12003 6.76001 7.91003 6.87001C7.90003 6.80001 7.86003 6.78001 7.78003 6.78001C7.69003 6.78001 7.63004 6.86001 7.54004 6.86001C7.44004 6.86001 7.35003 6.76001 7.28003 6.72001C7.19003 6.65001 7.11002 6.63001 7.02002 6.58001C6.87002 6.49001 6.69002 6.31001 6.65002 6.15001H6.59998V6.21001C6.59998 6.47001 6.74 6.63001 6.87 6.76001C6.98 6.87001 7.13998 6.94001 7.22998 7.01001C7.33998 7.09001 7.33999 7.21001 7.12 7.24001L6.92993 7.26001C6.89993 7.27001 6.91002 7.25001 6.90002 7.29001C6.89002 7.30001 6.88001 7.27001 6.89001 7.32001C6.89001 7.33001 6.90003 7.34001 6.91003 7.34001C6.92003 7.34001 6.96998 7.35001 6.97998 7.36001C7.16998 7.40001 7.33004 7.51001 7.54004 7.45001C7.17004 7.87001 6.96997 8.46001 6.96997 9.18001V9.65001H0.5V9.20001C0.5 4.25001 3.74 0.970008 9.12 0.970008C13.23 0.960008 16.36 2.97001 17.46 6.11001ZM30.28 4.22001C30.12 4.23001 29.62 4.25001 29.52 4.17001C29.31 4.01001 29.6499 3.50001 29.3099 3.36001C28.9299 3.24001 28.98 4.23001 28.96 4.34001C28.91 4.62001 28.6799 5.27001 29.1899 5.43001C29.5099 5.23001 29.24 4.78001 29.51 4.63001C29.55 4.61001 30.15 4.51001 30.24 4.63001C30.32 4.89001 30.15 5.35001 30.34 5.70001C30.66 5.79001 30.64 5.23001 30.66 4.99001C30.68 4.66001 30.6899 4.40001 30.6899 4.06001C30.6899 3.88001 30.78 3.18001 30.41 3.31001C30.26 3.36001 30.3 4.05001 30.28 4.22001ZM27.09 3.40001C26.99 3.79001 27.35 3.71001 27.58 3.77001C27.71 4.37001 27.2299 5.36001 27.8099 5.41001C28.1499 5.09001 27.83 5.15001 27.96 4.39001C28 4.14001 28 3.90001 28.04 3.67001C28.23 3.64001 28.36 3.75001 28.53 3.58001C28.55 2.95001 27.14 3.37001 27.09 3.40001ZM9.21997 4.42001C9.16997 4.36001 9.16992 4.39001 9.16992 4.32001C9.35992 4.32001 9.73003 4.20001 9.91003 4.12001C10 4.08001 10.48 3.86001 10.48 3.76001C10.48 3.73001 10.4799 3.69001 10.4299 3.69001C10.3299 3.69001 10.3 3.82001 10.12 3.87001L9.29993 4.00001C9.22993 4.01001 9.15998 4.02001 9.09998 4.03001C8.85998 4.08001 8.79996 4.07001 8.70996 3.84001C8.68996 3.79001 8.67002 3.74001 8.65002 3.68001L8.60999 3.57001C8.58998 3.44001 8.54998 3.36001 8.47998 3.26001C8.37998 3.13001 8.19995 2.95001 8.06995 2.84001C7.98995 2.78001 7.91999 2.72001 7.85999 2.63001C7.74999 2.45001 7.68003 2.16001 7.53003 2.14001C7.46003 2.27001 7.46997 2.35001 7.46997 2.50001C7.46997 2.79001 7.62004 3.12001 7.79004 3.35001C7.89004 3.49001 7.88998 3.47001 7.97998 3.55001C8.04998 3.62001 8.19995 3.71001 8.19995 3.84001C8.19995 3.98001 8.15002 4.01001 8.02002 4.04001C7.97002 4.27001 8.17995 4.29001 8.31995 4.44001C8.37995 4.50001 8.38999 4.53001 8.48999 4.60001C8.74999 4.78001 8.89999 4.63001 9.10999 4.63001C9.29998 4.63001 9.39994 4.80001 9.30994 4.58001L9.21997 4.42001Z" fill="white"/>
</mask>
<g mask="url(#mask0_9_1033)">
<path d="M34.0699 0.959961H0.48999V21.69H34.0699V0.959961Z" fill="url(#paint0_linear_9_1033)"/>
</g>
<path fill-rule="evenodd" clip-rule="evenodd" d="M41.31 7.21992C41.79 5.69992 45.4901 5.36992 44.6601 3.98992C44.0701 3.43992 40.8001 5.39992 40.1601 5.80992C39.6901 4.40992 40.76 3.17992 38.96 3.24992C37.99 4.35992 38.33 6.13992 38.35 7.63992C38.39 11.1299 38.18 11.5199 39.95 11.1199L39.8901 8.70992C41.9401 8.79992 42.6901 12.1699 44.6601 10.8799C44.4901 10.0499 42.11 7.82992 41.31 7.21992Z" fill="#F29120"/>
<path fill-rule="evenodd" clip-rule="evenodd" d="M50.26 3.0399C49.82 3.2799 48.9299 4.1999 48.4699 4.6099C47.7699 5.2399 47.45 5.8299 47.03 6.6799C45.24 10.3399 48.6199 12.6199 50.9699 10.1199C51.9799 9.0399 51.5999 8.7999 51.9399 7.6099C52.1899 6.7399 52.41 5.3099 51.9 4.5599C51.36 3.7499 51.36 2.4399 50.26 3.0399ZM48.4799 9.4399C48.1499 8.4599 48.1899 7.5499 48.9899 6.8699C50.1499 5.8799 49.6099 5.1999 50.6099 5.3599C50.7699 6.1899 50.3999 7.2699 50.1899 8.0799C49.9199 9.1099 49.6499 9.6899 48.4799 9.4399Z" fill="#F29120"/>
<path fill-rule="evenodd" clip-rule="evenodd" d="M55.85 3.38004C55.53 3.95004 55.4501 4.61004 55.4101 5.26004C55.3701 5.90004 54.34 8.10004 55.47 11.3L56.73 11.2C56.93 10.4 56.56 7.99004 57.05 7.33004L57.88 8.27004C60.05 8.49004 60.01 6.18004 61.17 5.74004C61.75 6.41004 61.27 7.92004 61.43 8.85004C61.65 10.06 61.79 10.29 62.97 10.21C63.01 9.27004 62.9101 8.86004 62.8901 8.04004C62.8801 7.79004 63.08 6.83004 63.12 6.38004C63.19 5.59004 63.34 3.52004 62.82 2.89004C60.89 1.36004 59.72 5.20004 58.68 6.05004C57.41 5.58004 57.5001 4.65004 57.1501 3.50004C56.5301 3.34004 56.5 3.25004 55.85 3.38004Z" fill="#F29120"/>
<path fill-rule="evenodd" clip-rule="evenodd" d="M68.9699 8.15998C69.9499 7.55998 72.6199 7.15998 73.0799 5.06998C73.2499 4.27998 73.43 3.85999 73.03 3.11999C71.46 0.199986 68.4899 1.87999 68.0899 1.95999C67.5399 2.06999 67.1099 1.91998 66.8599 2.56998C66.6499 3.12998 66.8999 6.00998 67.0999 6.79998C67.5599 8.56998 67.5 9.01998 67.28 10.75C66.99 13.01 68.73 13.65 68.89 12.03C68.99 10.89 68.8299 9.12998 68.9699 8.15998ZM68.7299 6.38998C67.6899 3.64998 69.2399 1.55999 71.2199 3.20999C72.4299 4.20999 71.8599 4.56998 71.3599 5.56998C70.8999 6.48998 69.7099 6.74998 68.7299 6.38998Z" fill="#F29120"/>
<path fill-rule="evenodd" clip-rule="evenodd" d="M74.8299 11.0201C76.4999 11.1601 75.73 9.51013 76.86 9.11013L78.99 8.89013C79.16 9.50013 79.1 10.0001 79.47 10.4401C81.41 10.4801 80.58 7.85013 80.48 6.58013C80.36 5.11013 79.55 3.44013 78.01 3.13013C77.79 3.27013 76.48 4.32013 76.4 4.47013C76.12 5.06013 76.4099 4.96013 76.0499 5.66013C75.2699 7.16013 73.6899 9.48013 74.8299 11.0201ZM77.22 7.56013C77.06 6.77013 77.5599 5.71012 78.3399 5.46012C78.7999 5.93012 78.91 6.32013 78.73 6.94013C78.42 7.56013 77.87 7.80013 77.22 7.56013Z" fill="#F29120"/>
<path fill-rule="evenodd" clip-rule="evenodd" d="M88.08 4.13006C88.07 2.88006 87.65 2.46006 86.34 2.86006C85.5 3.11006 84.46 3.35006 84.2 4.20006C83.52 6.44006 85.1799 7.37006 86.6699 8.37006L86.78 9.48006C86.37 9.70006 85.8899 10.0701 85.4299 10.1701C84.7899 10.3101 84.28 10.1601 83.73 10.5201C84.09 12.3901 89.3999 11.1401 87.9399 7.87006C87.3299 6.51006 86.26 7.26006 85.75 5.63006C85.54 4.97006 85.7599 4.59006 86.3199 4.25006C87.3499 3.63006 87.16 4.22006 88.08 4.13006Z" fill="#F29120"/>
<path fill-rule="evenodd" clip-rule="evenodd" d="M100.22 9.95989C98.2099 9.70989 94.9999 10.0899 96.0699 6.97989C97.4299 3.03989 99.8799 5.3299 99.6099 3.1099C98.4099 2.1699 96.5899 2.7399 95.8199 3.9899C95.3199 4.8099 94.4599 7.0199 94.4199 8.0199C94.2499 11.7299 101.06 12.5099 100.22 9.95989Z" fill="#F29120"/>
<path fill-rule="evenodd" clip-rule="evenodd" d="M105.06 2.84002C104.44 3.29002 104.62 2.99002 104.15 3.67002C103.9 4.03002 103.56 4.34002 103.32 4.69002C101.37 7.56002 101.21 11.38 104.66 10.88C106.99 10.54 107.64 9.10002 107.77 6.89002C107.92 4.13002 106.96 4.37002 106.15 3.18002C105.79 2.65002 105.63 2.42002 105.06 2.84002ZM106.1 4.95002C106.57 5.84002 106.33 7.17002 106.01 8.10002C105.87 8.51002 105.7 9.05002 105.35 9.29002C104.96 9.56002 104.02 9.68002 103.64 9.41002C103.13 9.04002 103.71 6.96002 103.89 6.55002C104.14 6.02002 105.7 4.94002 106.1 4.95002Z" fill="#F29120"/>
<path fill-rule="evenodd" clip-rule="evenodd" d="M122.2 10.0101C122.27 9.09007 121.93 9.22007 121.81 8.26007C121.67 7.06007 122.17 3.94007 121.29 3.23007C119.44 1.73007 117.89 5.96007 117.01 6.77007C115.93 6.03007 115.95 5.28007 115.38 4.24007C114.85 3.29007 114.42 3.34007 112.75 2.82007C111.67 3.52007 112.11 4.01007 112.08 5.12007C111.42 5.57007 111.32 5.56007 111.25 6.42007C111.13 7.90007 110.64 11.1601 111.8 11.4801C113.4 11.5001 113.18 9.93007 113.45 8.66007C113.74 7.32007 113.59 6.90007 114.01 5.60007C114.7 6.51007 115.7 8.65007 117.17 8.61007C118.58 8.57007 118.43 5.66007 119.7 4.98007C120.52 6.26007 118.97 11.7901 122.2 10.0101Z" fill="#F29120"/>
<path fill-rule="evenodd" clip-rule="evenodd" d="M90.8499 11.2799C92.0999 11.1899 91.9 11.1299 92.14 10.1999C92.79 8.2599 88.9399 8.71989 90.8499 11.2799Z" fill="#F29120"/>
<path fill-rule="evenodd" clip-rule="evenodd" d="M51.48 18.1599C51.52 17.6799 51.34 17.7499 51.28 17.2499C51.2 16.6199 51.47 14.9999 51.01 14.6199C50.04 13.8399 49.23 16.0499 48.77 16.4699C48.21 16.0799 48.2199 15.6899 47.9199 15.1499C47.6499 14.6499 47.42 14.6799 46.54 14.4099C45.98 14.7799 46.1999 15.0299 46.1899 15.6099C45.8399 15.8499 45.79 15.8399 45.76 16.2899C45.7 17.0599 45.4399 18.7699 46.0499 18.9399C46.8899 18.9499 46.77 18.1299 46.91 17.4699C47.06 16.7699 46.9799 16.5499 47.1999 15.8699C47.5599 16.3499 48.0799 17.4599 48.8499 17.4399C49.5899 17.4199 49.5099 15.8999 50.1699 15.5399C50.6099 16.1999 49.79 19.0899 51.48 18.1599Z" fill="#184899"/>
<path fill-rule="evenodd" clip-rule="evenodd" d="M54.5 14.8801C55.03 14.6001 56.1399 14.4901 56.4399 13.9501C56.1099 13.4401 55.48 13.5501 54.97 13.7101C52.94 14.3101 53.52 14.0401 53.49 15.3601C53.48 15.7701 53.42 16.0601 53.4 16.4401C53.37 16.9901 53.57 17.1001 53.53 17.4801C53.49 17.8401 53.31 18.0801 53.29 18.4501C53.9 18.6401 55.28 18.8901 55.78 18.4201C55.68 17.6901 55.02 17.8401 54.52 17.8001C54.45 16.6301 56.03 17.4501 55.75 16.5001C55.41 16.1701 54.97 16.3901 54.6 16.2101C54.48 15.6701 54.74 15.5301 54.5 14.8801Z" fill="#184899"/>
<path fill-rule="evenodd" clip-rule="evenodd" d="M58.11 14.28C58.03 14.87 58.03 15.49 58.01 16.07C58 16.46 57.88 16.68 58.01 16.99C58.23 17.51 58.12 17.3 58.22 17.86C58.67 18.14 60.6899 18.86 60.6799 17.79C59.9799 17.46 58.96 17.82 58.86 16.81C58.81 16.3 58.87 14.98 58.72 14.29C58.63 13.82 58.17 13.87 58.11 14.28Z" fill="#184899"/>
<path fill-rule="evenodd" clip-rule="evenodd" d="M62.11 18.48C62.15 18.93 62.63 18.97 62.83 18.65C63.05 18.31 62.9299 16.47 62.9299 15.91C62.9399 13.72 62 14.39 61.97 14.7L62.15 17.25C62.2 18.16 62.1 18.32 62.11 18.48Z" fill="#184899"/>
<path fill-rule="evenodd" clip-rule="evenodd" d="M67.93 16.1201C67.58 16.1301 66.5 16.1801 66.3 16.0201C65.86 15.6901 66.57 14.6501 65.85 14.3601C65.04 14.1201 65.14 16.1301 65.1 16.3601C65 16.9301 64.5 17.9901 65.6 18.3201C66.3 17.9001 65.7101 17.2601 66.2801 16.9501C66.3601 16.9001 67.67 16.7101 67.85 16.9401C68.02 17.4801 67.65 18.7501 68.06 19.4601C68.75 19.6401 68.71 18.5001 68.75 18.0201C68.8 17.3501 68.8 16.4701 68.81 15.7901C68.81 15.4101 68.99 13.9901 68.21 14.2501C67.89 14.3601 67.98 15.7601 67.93 16.1201Z" fill="#184899"/>
<path fill-rule="evenodd" clip-rule="evenodd" d="M71.15 18.89C71.28 18.4 71.5399 17.87 71.7199 17.39C71.9999 16.64 72.9999 16.72 73.0699 16.78C73.3099 17.17 73.2099 17.25 73.2099 17.73C73.1899 18.63 73.1299 18.04 72.9799 18.55C74.1399 19.79 73.9299 16.99 73.9699 16.48C74.0099 15.94 74.2199 16.12 74.0999 15.72C74.0299 15.49 73.9199 15.33 73.8299 14.97C73.5699 13.97 73.0599 13.58 72.1799 14.29C71.9399 14.48 71.29 16.03 71.15 16.33C70.93 16.8 70.8599 17.37 70.6899 17.86C70.4199 18.6 70.21 19.04 71.15 18.89ZM72.4299 15.72C72.4699 15.65 72.5299 15.49 72.5699 15.44C72.7499 15.14 72.5399 15.36 72.8099 15.23C73.3599 15.58 72.8099 16.14 72.4299 15.72Z" fill="#184899"/>
<path fill-rule="evenodd" clip-rule="evenodd" d="M75.76 14.73C75.55 15.53 76.3299 15.36 76.8199 15.49C77.1099 16.71 76.04 18.6 77.29 18.71C78.02 18.05 77.36 18.31 77.62 16.76C77.71 16.24 77.7099 15.75 77.7999 15.28C78.2199 15.21 78.48 15.44 78.86 15.09C78.89 13.81 75.87 14.67 75.76 14.73Z" fill="#184899"/>
<path fill-rule="evenodd" clip-rule="evenodd" d="M84.5 14.25C84.68 14.78 84.5799 15.17 84.5599 15.74C84.0699 15.88 83.9099 16.07 83.3399 15.88C83.2599 15.46 84.04 13.41 82.04 13.6C81.9 14.01 81.7599 15.93 81.8199 16.35C81.8499 16.6 81.96 16.68 82 16.91C82.02 17.01 82 17.34 82.02 17.45C82.06 17.73 82.1499 17.7 82.2099 17.99C82.2599 18.24 82.2199 18.41 82.2999 18.69C82.8499 18.85 83.1499 18.75 83.1799 18.14C83.2199 17.45 83.0299 16.55 84.5499 16.85C84.7799 17.3 84.3299 18.34 84.8099 18.55C85.5999 18.89 85.62 17.66 85.66 17.18C85.72 16.45 85.63 15.58 85.6 14.84C85.59 14.53 85.6599 14.16 85.2999 14.01C84.8999 13.84 84.82 14.07 84.5 14.25Z" fill="#184899"/>
<path fill-rule="evenodd" clip-rule="evenodd" d="M90.47 16.56C91 17.7 90.01 18.38 91.05 18.33C91.88 18.29 91.64 17.12 91.59 16.6C91.46 15.37 91.63 15.65 91.17 14.6C90.78 13.71 90.8001 13.5 89.7501 13.67C88.8201 13.82 88.82 14.16 88.46 15C88.36 15.24 88.34 15.23 88.23 15.5C87.98 16.14 87.16 19.01 88.47 18.43C89 18.19 88.81 17.05 89.24 16.56H90.47ZM89.61 15.64C89.24 15.01 89.7501 14.59 90.0401 14.55C90.2601 14.9 90.32 15.11 90.21 15.52L89.61 15.64Z" fill="#184899"/>
<path fill-rule="evenodd" clip-rule="evenodd" d="M97.1699 16.4901C96.6899 15.6201 96.92 15.9801 96.97 14.9501C96.97 14.3101 96.6399 13.9801 96.0699 13.9401C95.8399 13.9201 94.5999 14.0101 94.4199 14.0801C94.3499 14.3401 94.17 17.1401 94.66 18.1701C94.93 18.7501 94.97 18.9501 95.53 18.4501C95.5 18.0001 95.4499 17.5501 95.4299 17.0901C95.6799 16.9701 96.04 16.8101 96.28 16.8901C96.79 17.2001 96.68 18.5501 97.63 18.0001C97.71 17.5501 97.3699 16.8701 97.1699 16.4901ZM95.59 16.2801C95.17 16.0701 95.21 15.8101 95.23 15.2401C95.2 14.6901 95.51 14.6601 95.98 14.6901C96.32 15.2701 96.01 15.9501 95.59 16.2801Z" fill="#184899"/>
<path fill-rule="evenodd" clip-rule="evenodd" d="M106.04 16.47C106.55 16.16 107.95 15.95 108.19 14.86C108.28 14.45 108.37 14.23 108.16 13.84C107.34 12.31 105.79 13.19 105.58 13.24C105.29 13.3 105.07 13.22 104.94 13.56C104.83 13.85 104.96 15.36 105.07 15.77C105.31 16.69 105.28 16.93 105.16 17.83C105.01 19.01 105.92 19.34 106 18.5C106.05 17.9 105.96 16.98 106.04 16.47ZM105.91 15.54C105.37 14.11 106.18 13.02 107.21 13.88C107.84 14.4 107.55 14.59 107.28 15.12C107.05 15.6 106.43 15.73 105.91 15.54Z" fill="#184899"/>
<path fill-rule="evenodd" clip-rule="evenodd" d="M101.08 14.02C100.9 14.28 100.68 14.62 100.48 14.95C100.12 15.57 100.38 14.96 99.97 15.87C99.83 16.19 99.61 16.5 99.5 16.84C99.34 17.38 99.56 17.39 99.38 17.96C99.22 18.46 99.3799 19 99.9199 18.6C100.14 18.43 100.24 17.87 100.39 17.62C100.55 17.34 101.93 16.76 102.26 16.8L102.62 18.23L103.19 18.1C103.39 17.62 102.98 14.33 102.34 14.05L101.08 14.02ZM102.22 15.98C102.12 16.03 101.58 16.23 101.43 16.27C101.08 16.37 101.02 16.24 101.12 15.88C101.22 15.53 101.6 14.75 101.8 14.59C102.13 14.98 102.2 15.51 102.22 15.98Z" fill="#184899"/>
<path fill-rule="evenodd" clip-rule="evenodd" d="M117.72 18.3901C118.01 17.7801 118.21 16.9701 118.13 16.2601C118.03 15.3601 118.48 14.7301 118.36 14.2401C116.86 13.6501 117.61 16.6601 117.17 17.2301C116.66 17.1401 116.3 15.9501 115.98 15.5501C115.72 15.2201 115.41 15.1301 115.19 14.8901C114.9 14.5701 115.02 14.2001 114.37 14.2701C114.05 14.9801 113.92 15.4601 113.74 16.2201C113.62 16.7401 113.72 16.6001 113.7 17.1201C113.68 17.4801 113.69 17.6601 113.83 18.0401C115.14 18.1001 114.47 16.5301 114.88 15.7301C115.68 15.7101 116.2 18.1901 117.17 18.4801L117.72 18.3901Z" fill="#184899"/>
<path fill-rule="evenodd" clip-rule="evenodd" d="M109.29 18.2001C110.16 18.2701 109.76 17.4101 110.35 17.2001L111.46 17.0901C111.55 17.4101 111.52 17.6701 111.71 17.9001C112.72 17.9201 112.29 16.5501 112.24 15.8801C112.18 15.1101 111.76 14.2401 110.95 14.0801C110.84 14.1501 110.15 14.7001 110.11 14.7801C109.96 15.0901 110.12 15.0401 109.93 15.4001C109.52 16.1801 108.69 17.3901 109.29 18.2001ZM110.54 16.3901C110.46 15.9801 110.72 15.4201 111.13 15.2901C111.37 15.5301 111.43 15.7401 111.33 16.0601C111.16 16.3901 110.87 16.5201 110.54 16.3901Z" fill="#184899"/>
<path fill-rule="evenodd" clip-rule="evenodd" d="M40.88 16.19C40.87 15.9 40.8899 15.98 41.2099 15.98C41.3299 15.98 41.4499 15.99 41.5599 15.99C42.1999 16.01 42.0999 15.91 42.0799 16.52C42.0599 16.95 42.09 16.83 41.63 16.82C40.82 16.8 40.9 16.97 40.88 16.19ZM40.0499 18.38C40.0899 18.83 40.57 18.87 40.77 18.55C40.87 18.4 40.9 17.99 40.9 17.51C42.73 17.52 41.7599 17.61 42.1799 18.75C42.6699 19.16 42.8199 18.8 42.8599 18.27C42.8699 18.11 42.8999 17.88 42.9199 17.62C44.4299 17.7 44.2499 16.86 43.1799 16.83C42.9299 16.82 42.93 16.08 43.15 16.09C44.66 16.17 44.3899 15.32 43.3599 15.29C42.7299 15.27 43.2699 14.78 42.8599 14.17C42.5799 13.75 42.19 14.1 42.16 14.53C42.12 15.08 42.3699 15.31 41.8399 15.3C41.5499 15.29 41.1999 15.28 40.8499 15.28C40.7199 14.26 40.0999 14.26 39.9399 14.74C39.9499 15.19 40.0799 15.29 39.6999 15.38C38.7899 15.61 39.1799 16.13 39.9499 16.04C40.0399 16.04 40.1099 16.82 39.9399 16.83C38.4699 16.98 38.8499 17.67 39.7299 17.57C40.3699 17.49 39.9699 17.86 40.0499 18.38Z" fill="#184899"/>
<path fill-rule="evenodd" clip-rule="evenodd" d="M65.63 21.6901H68.02C68.47 21.3901 71.08 21.5401 71.77 21.5801C73.12 21.6601 74.59 21.6601 75.95 21.6601C77.6 21.6601 78.45 21.5901 79.95 21.4901C80.35 21.4601 80.6099 21.4501 80.7999 21.4501C80.8599 21.4601 80.93 21.4601 80.99 21.4601C81.03 21.4601 81.06 21.4601 81.1 21.4601C81.38 21.4801 81.24 21.5701 81.78 21.6001C81.96 21.6101 82.0699 21.6001 82.1699 21.5701C82.6099 21.6301 83.1 21.6801 84.08 21.5701C84.46 21.5301 84.66 21.6401 85.01 21.6401C85.58 21.6401 86.31 21.5101 86.9 21.4701C88.77 21.3501 87.77 21.4801 88.74 21.5101C89.48 21.5401 90.18 21.4701 90.91 21.4701C91.56 21.4701 92.31 21.5901 92.97 21.6301L97.09 21.4601C98.91 21.2401 98.9699 21.5801 99.8099 21.4301C100.12 21.3701 100.4 21.3901 100.7 21.4601C101.23 21.5801 102.2 21.5401 102.62 21.7001H105.01C105.46 21.4001 108.07 21.5501 108.76 21.5901C110.11 21.6701 111.58 21.6701 112.94 21.6701C114.59 21.6701 115.44 21.6001 116.94 21.5001C118.77 21.3801 117.91 21.5501 118.77 21.6001C119.16 21.6301 119.23 21.5201 119.59 21.4201C119.96 21.3201 120.06 21.4201 120.41 21.4501C120.6 21.1901 120.81 20.9901 120.52 20.7001C120.2 20.3901 120.22 20.4301 119.76 20.5101C118.59 20.7101 116.92 20.7501 115.68 20.8001C115.35 20.8101 115.06 20.9001 114.73 20.9301L111.7 20.9401C110.98 20.8801 110.31 20.9701 109.61 20.9201C108.52 20.8501 106.37 20.6701 105.35 20.8201C104.37 20.9701 105.24 21.1401 103.42 21.0201C102.79 20.9801 102.01 20.9001 101.39 20.8101C101.06 20.7601 100.79 20.6501 100.44 20.6201C100.06 20.5901 99.76 20.6601 99.41 20.6601C98.71 20.6501 98 20.6101 97.29 20.6201C94.6 20.6301 94.26 20.9001 91.2 20.6401C90.56 20.5901 89.95 20.6701 89.28 20.6301C88.56 20.5801 87.84 20.4801 87.12 20.5701C86.47 20.6501 84.95 20.7101 83.54 20.7201C83.53 20.7101 83.52 20.7001 83.52 20.6901C83.2 20.3801 83.22 20.4201 82.76 20.5001C82.25 20.5901 81.65 20.6401 81.04 20.6801C80.96 20.6701 80.8799 20.6701 80.8199 20.6601C80.7299 20.6501 80.52 20.6201 80.39 20.7201C79.79 20.7501 79.1999 20.7701 78.6899 20.7901C78.3599 20.8001 78.07 20.8901 77.74 20.9201L74.71 20.9301C73.99 20.8701 73.32 20.9601 72.62 20.9101C71.53 20.8401 69.38 20.6601 68.36 20.8101C67.38 20.9601 68.2499 21.1301 66.4299 21.0101C65.7999 20.9701 65.02 20.8901 64.4 20.8001C64.07 20.7501 63.8 20.6401 63.45 20.6101C63.07 20.5801 62.7699 20.6501 62.4199 20.6501C61.7199 20.6401 61.0099 20.6001 60.2999 20.6101C57.6099 20.6201 57.27 20.8901 54.21 20.6301C53.56 20.5801 52.96 20.6601 52.29 20.6201C51.57 20.5701 50.85 20.4701 50.13 20.5601C48.93 20.7101 44.8399 20.7601 43.8199 20.6601C43.6799 20.6501 43.22 20.5701 43.29 21.0501C43.34 21.4101 43.68 21.4501 43.98 21.4501C45.12 21.4401 45.2999 21.7501 47.0599 21.5601C47.4399 21.5201 47.64 21.6301 47.99 21.6301C48.56 21.6301 49.29 21.5001 49.88 21.4601C51.75 21.3401 50.75 21.4701 51.72 21.5001C52.46 21.5301 53.16 21.4601 53.89 21.4601C54.54 21.4601 55.29 21.5801 55.95 21.6201L60.0699 21.4501C61.8899 21.2301 61.95 21.5701 62.79 21.4201C63.1 21.3601 63.3799 21.3801 63.6799 21.4501C64.2399 21.5801 65.21 21.5301 65.63 21.6901Z" fill="#184899"/>
<defs>
<linearGradient id="paint0_linear_9_1033" x1="17.2746" y1="-0.478139" x2="17.2746" y2="23.1251" gradientUnits="userSpaceOnUse">
<stop stop-color="#F29120"/>
<stop offset="1" stop-color="#EC2224"/>
</linearGradient>
</defs>
</svg>
